<svg width="23" height="21" viewBox="0 0 23 21" fill="none" xmlns="http://www.w3.org/2000/svg">
<path d="M11.5 19.25V16.625" stroke="white" stroke-width="2" stroke-linecap="round" stroke-linejoin="round"/>
<path fill-rule="evenodd" clip-rule="evenodd" d="M6.14267 6.875H8.75C9.30228 6.875 9.75 7.32272 9.75 7.875C9.75 8.42728 9.30228 8.875 8.75 8.875H6V10.375H8.75C9.30228 10.375 9.75 10.8227 9.75 11.375C9.75 11.9273 9.30228 12.375 8.75 12.375H6.14267C6.70865 14.8104 8.89241 16.625 11.5 16.625C14.1076 16.625 16.2913 14.8104 16.8573 12.375H15.1667C14.6144 12.375 14.1667 11.9273 14.1667 11.375C14.1667 10.8227 14.6144 10.375 15.1667 10.375H17V8.875H15.1667C14.6144 8.875 14.1667 8.42728 14.1667 7.875C14.1667 7.32272 14.6144 6.875 15.1667 6.875H16.8573C16.2913 4.43965 14.1076 2.625 11.5 2.625C8.89241 2.625 6.70865 4.43965 6.14267 6.875Z" fill="white"/>
</svg>
